<?xml version="1.0" encoding="utf-8"?>
<!-- Generator: Adobe Illustrator 25.2.3, SVG Export Plug-In . SVG Version: 6.00 Build 0)  -->
<svg version="1.1" id="Layer_1" xmlns="http://www.w3.org/2000/svg" xmlns:xlink="http://www.w3.org/1999/xlink" x="0px" y="0px"
	 viewBox="0 0 595.28 841.89" style="enable-background:new 0 0 595.28 841.89;" xml:space="preserve">
<style type="text/css">
	.st0{fill:#3D59A8;stroke:#FFFFFF;stroke-miterlimit:10;}
	.st1{fill:#FFFFFF;stroke:#3D59A8;stroke-miterlimit:10;}
	.st2{fill:#4262AE;stroke:#3D59A8;stroke-miterlimit:10;}
</style>
<g>
</g>
<g>
</g>
<g>
</g>
<path class="st0" d="M44.97,10.47"/>
<path class="st1" d="M297.64,455.87L297.64,455.87c0,16.57-11.63,23.28-25.98,15l-155.89-90c-14.35-8.28-25.98-1.57-25.98,15v0
	c0,16.57,11.63,36.72,25.98,45l155.89,90c14.35,8.28,25.98,28.43,25.98,45v120c0,16.57-11.63,23.28-25.98,15l-207.85-120
	c-14.35-8.28-25.98-28.43-25.98-45v0c0-16.57,11.63-23.28,25.98-15l155.89,90c14.35,8.28,25.98,1.57,25.98-15v0
	c0-16.57-11.63-36.72-25.98-45l-155.89-90c-14.35-8.28-25.98-28.43-25.98-45v-120c0-16.57,11.63-23.28,25.98-15l207.85,120
	C286.01,419.16,297.64,439.31,297.64,455.87z"/>
<path class="st1" d="M411.49,313.18c-7.43-4.37-19.47-4.38-26.89-0.01l-73.41,43.2c-7.42,4.37-19.46,4.36-26.89-0.01L110.34,253.97
	c-7.43-4.37-19.47-4.38-26.89-0.01l-23.27,13.7c-7.42,4.37-7.41,11.45,0.02,15.82l224.19,131.95c7.43,4.37,19.47,4.38,26.89,0.01
	l123.54-72.71c7.42-4.37,7.41-11.45-0.02-15.82L411.49,313.18z"/>
<path class="st1" d="M535.07,267.89L310.88,135.94c-7.43-4.37-19.47-4.38-26.89-0.01l-123.54,72.71
	c-7.42,4.37-7.41,11.45,0.02,15.82l23.31,13.72c7.43,4.37,19.47,4.38,26.89,0.01l73.41-43.2c7.42-4.37,19.46-4.36,26.89,0.01
	l173.97,102.39c7.43,4.37,19.47,4.38,26.89,0.01l23.27-13.7C542.51,279.35,542.5,272.26,535.07,267.89z"/>
<path class="st1" d="M319.52,245.36c7.42-4.37,7.41-11.45-0.02-15.82l-8.49-5c-7.43-4.37-19.47-4.38-26.89-0.01l-11.64,6.85
	l-61.77,36.36c-7.42,4.37-7.41,11.45,0.02,15.82l74.01,43.56c7.43,4.37,19.47,4.38,26.89,0.01l73.41-43.2
	c7.42-4.37,7.41-11.45-0.02-15.82l-11.7-6.89c-7.43-4.37-19.47-4.38-26.89-0.01l-48.34,28.45c-7.42,4.37-19.46,4.36-26.89-0.01h0
	c-7.43-4.37-7.44-11.46-0.02-15.82L319.52,245.36z"/>
<path class="st1" d="M484.95,319.01l-151.49,87.46c-16.78,9.69-30.38,33.25-30.38,52.62v144.93v98.19
	c0,12.05,8.46,16.93,18.89,10.91l14.18-8.18c10.43-6.02,18.89-20.68,18.89-32.72v-98.19l103.92-60l22.16,88.69
	c2.38,9.52,10.86,12.25,20.59,6.64l10.34-5.97c13.94-8.05,24.09-29.15,20.53-42.65l-21.65-81.84l-0.02,0.01
	c30.28-29.83,51.98-75.69,51.98-114.88v0C562.9,314.31,528,294.16,484.95,319.01z"/>
<path class="st2" d="M349.6,452.03v60l129.91-75c14.35-8.28,25.98-28.43,25.98-45v0c0-16.57-11.63-23.29-25.98-15L349.6,452.03z"/>
<g>
</g>
</svg>
